<?xml version="1.0" encoding="UTF-8"?>
<svg id="Layer_1" xmlns="http://www.w3.org/2000/svg" version="1.1" viewBox="0 0 376 56">
  <!-- Generator: Adobe Illustrator 29.8.7, SVG Export Plug-In . SVG Version: 2.1.1 Build 1)  -->
  <defs>
    <style>
      .st0, .st1 {
        fill: #fff;
      }

      .st1 {
        fill-rule: evenodd;
      }
    </style>
  </defs>
  <path class="st0" d="M55.25,28.5c0-9.82,7.54-16.84,17.68-16.84,5.63,0,10.33,2.05,13.4,5.77l-4.84,4.47c-2.19-2.51-4.93-3.82-8.19-3.82-6.1,0-10.42,4.28-10.42,10.42s4.33,10.42,10.42,10.42c3.26,0,6-1.3,8.19-3.86l4.84,4.47c-3.07,3.77-7.77,5.82-13.45,5.82-10.1,0-17.64-7.03-17.64-16.84Z"/>
  <path class="st0" d="M88.17,28.5c0-9.68,7.54-16.84,17.82-16.84s17.82,7.12,17.82,16.84-7.58,16.84-17.82,16.84-17.82-7.17-17.82-16.84ZM116.18,28.5c0-6.19-4.37-10.42-10.19-10.42s-10.19,4.23-10.19,10.42,4.37,10.42,10.19,10.42,10.19-4.23,10.19-10.42Z"/>
  <path class="st0" d="M129,12.21h14.8c10.66,0,17.96,6.42,17.96,16.28s-7.31,16.29-17.96,16.29h-14.8V12.21ZM143.43,38.6c6.47,0,10.7-3.86,10.7-10.1s-4.23-10.1-10.7-10.1h-6.89v20.19h6.89Z"/>
  <path class="st0" d="M192.17,38.73v6.05h-25.22V12.21h24.61v6.05h-17.12v7.07h15.12v5.86h-15.12v7.54h17.73Z"/>
  <path class="st0" d="M214.38,31.2h5.41v10.38c-2.81,2.12-6.69,3.25-10.34,3.25-8.04,0-13.96-5.52-13.96-13.23s5.92-13.23,14.07-13.23c4.5,0,8.22,1.53,10.71,4.42l-3.8,3.51c-1.86-1.97-4.02-2.89-6.62-2.89-4.97,0-8.37,3.33-8.37,8.19s3.4,8.19,8.3,8.19c1.61,0,3.11-.29,4.61-1.1v-7.49Z"/>
  <path class="st0" d="M243.55,44.4l-4.93-7.13h-5.45v7.13h-5.92v-25.59h11.08c6.83,0,11.11,3.55,11.11,9.28,0,3.84-1.94,6.65-5.26,8.08l5.74,8.22h-6.36ZM238,23.64h-4.83v8.92h4.83c3.62,0,5.45-1.68,5.45-4.46s-1.83-4.46-5.45-4.46Z"/>
  <path class="st0" d="M272.94,38.92h-11.88l-2.27,5.48h-6.07l11.4-25.59h5.85l11.44,25.59h-6.21l-2.27-5.48ZM271.07,34.42l-4.06-9.8-4.06,9.8h8.11Z"/>
  <path class="st0" d="M309.27,18.81l-11.08,25.59h-5.85l-11.04-25.59h6.4l7.79,18.28,7.89-18.28h5.88Z"/>
  <path class="st0" d="M319.29,44.37h-5.92v-25.59h5.92v25.59Z"/>
  <path class="st0" d="M332.63,23.64h-8.19v-4.82h22.3v4.82h-8.19v20.76h-5.92v-20.76Z"/>
  <path class="st0" d="M363.7,35.33v9.06h-5.92v-9.14l-9.91-16.45h6.29l6.83,11.37,6.84-11.37h5.81l-9.94,16.52Z"/>
  <rect class="st0" x="312.62" y="47.08" width="7.4" height="7.4" rx="1.39" ry="1.39"/>
  <g>
    <path class="st1" d="M28.31,13.76c11.45,0,20.74,9.29,20.74,20.74s-9.29,20.74-20.74,20.74S7.57,45.95,7.57,34.5c0-2.39.41-4.68,1.15-6.82h9.49c-1.32,1.95-2.09,4.29-2.09,6.82,0,6.73,5.46,12.19,12.19,12.19s12.19-5.46,12.19-12.19-5.46-12.19-12.19-12.19v-8.55h0Z"/>
    <path class="st1" d="M16.55,13.76h5.24c1.1,0,1.99.9,1.99,1.99v5.4c0,1.1-.9,1.99-1.99,1.99h-5.4c-1.1,0-1.99-.9-1.99-1.99v-5.24c0-1.65-1.35-3-3-3H3.66c-1.25,0-2.28-1.02-2.28-2.28V3.04C1.39,1.78,2.41.76,3.66.76h7.6c1.25,0,2.28,1.02,2.28,2.28v7.72c0,1.65,1.35,3,3,3h0Z"/>
    <path class="st1" d="M28.31,3.08h0c2.35,0,4.28,1.92,4.28,4.28h0c0,2.35-1.92,4.28-4.28,4.28h0c-2.35,0-4.28-1.92-4.28-4.28h0c0-2.35,1.92-4.28,4.28-4.28h0Z"/>
  </g>
</svg>