<?xml version="1.0" encoding="UTF-8"?>
<svg id="Layer_1" xmlns="http://www.w3.org/2000/svg" version="1.1" viewBox="0 0 78 56">
  <!-- Generator: Adobe Illustrator 29.8.7, SVG Export Plug-In . SVG Version: 2.1.1 Build 1)  -->
  <defs>
    <style>
      .st0 {
        fill: #fff;
        fill-rule: evenodd;
      }
    </style>
  </defs>
  <path class="st0" d="M42.09,13.76c11.45,0,20.74,9.29,20.74,20.74s-9.29,20.74-20.74,20.74-20.74-9.29-20.74-20.74c0-2.39.41-4.68,1.15-6.82h9.49c-1.32,1.95-2.09,4.29-2.09,6.82,0,6.73,5.46,12.19,12.19,12.19s12.19-5.46,12.19-12.19-5.46-12.19-12.19-12.19v-8.55h0Z"/>
  <path class="st0" d="M30.33,13.76h5.24c1.1,0,1.99.9,1.99,1.99v5.4c0,1.1-.9,1.99-1.99,1.99h-5.4c-1.1,0-1.99-.9-1.99-1.99v-5.24c0-1.65-1.35-3-3-3h-7.72c-1.25,0-2.28-1.02-2.28-2.28V3.04c0-1.25,1.02-2.28,2.28-2.28h7.6c1.25,0,2.28,1.02,2.28,2.28v7.72c0,1.65,1.35,3,3,3h0Z"/>
  <path class="st0" d="M42.09,3.08h0c2.35,0,4.28,1.92,4.28,4.28h0c0,2.35-1.92,4.28-4.28,4.28h0c-2.35,0-4.28-1.92-4.28-4.28h0c0-2.35,1.92-4.28,4.28-4.28h0Z"/>
</svg>