<?xml version="1.0" encoding="UTF-8"?>
<svg id="Layer_1" xmlns="http://www.w3.org/2000/svg" version="1.1" viewBox="0 0 78 56">
  <!-- Generator: Adobe Illustrator 30.3.0, SVG Export Plug-In . SVG Version: 2.1.3 Build 182)  -->
  <defs>
    <style>
      .st0 {
        opacity: .3;
      }

      .st1 {
        fill: #80000e;
      }

      .st2 {
        fill: #fff;
      }

      .st3 {
        fill: #c10008;
      }

      .st4 {
        fill: #620008;
      }

      .st5 {
        fill: #a0000d;
      }

      .st6 {
        opacity: .4;
      }

      .st7 {
        opacity: 0;
      }

      .st8 {
        opacity: .3;
      }
    </style>
  </defs>
  <path d="M.9,29.4s4.5,5.3,6,5.8,36.5,6.5,38.3,6.6c1.9,0,22.4-6,23.6-6.5s7.2-5,7.2-5c0,0-4-4.5-5.3-6.7-1.3-2.2-13.7-9.8-18.8-10.4-5.1-.6-17.9-2.9-21.4-2-3.5.9-11.3,3.9-14.4,5.5-3.1,1.6-15.3,12.7-15.3,12.7Z"/>
  <g>
    <path class="st2" d="M38.9,37.3s.1-2.7.1-3.3.3-.8,2.1-.8,2.3,0,2.7,0c1.6,0,1.5.3,1.5.8v3.8l-6.5-.4Z"/>
    <path class="st2" d="M45.4,37.3s.1-2.7.1-3.3.3-.8,2.1-.8,2.3,0,2.7,0c1.6,0,1.5.3,1.5.8v3.8l-6.5-.4Z"/>
    <path class="st2" d="M51.8,37.3s.1-2.7.1-3.3.3-.8,2.1-.8,2.3,0,2.7,0c1.6,0,1.5.3,1.5.8v3.8l-6.5-.4Z"/>
    <path class="st2" d="M32.4,37.3s.1-2.7.1-3.3.3-.8,2.1-.8,2.3,0,2.7,0c1.6,0,1.5.3,1.5.8v3.8l-6.5-.4Z"/>
    <path class="st2" d="M25.9,14.8s-.2,5.4-.2,6.6-.5,1.6-4.2,1.6-4.6,0-5.4,0c-3.2,0-3.1-.5-3.1-1.6v-7.5l12.8.9Z"/>
    <path class="st2" d="M64.7,14.7s-.2,5.4-.2,6.6-.5,1.6-4.2,1.6-4.6,0-5.4,0c-3.2,0-3.1-.5-3.1-1.6v-7.5l12.8.9Z"/>
    <path class="st2" d="M25.9,37.3s.1-2.7.1-3.3.3-.8,2.1-.8,2.3,0,2.7,0c1.6,0,1.5.3,1.5.8v3.8l-6.5-.4Z"/>
    <path class="st2" d="M19.4,37.3s.1-2.7.1-3.3.3-.8,2.1-.8,2.3,0,2.7,0c1.6,0,1.5.3,1.5.8v3.8l-6.5-.4Z"/>
    <path class="st2" d="M39,14s-.2,6.9,0,8c.1,1.1.5,1.3,1.4,1.8.8.6,4.5.9,6.7.8,2.2-.1,4.1-.9,4.6-1.8.5-.9.1-8.2.1-8.2l-12.7-.5Z"/>
    <path class="st2" d="M38.6,14s.2,6.9,0,8c-.1,1.1-.5,1.3-1.4,1.8-.8.6-4.5.9-6.7.8-2.2-.1-4.1-.9-4.6-1.8-.5-.9-.1-8.2-.1-8.2l12.7-.5Z"/>
  </g>
  <path class="st6" d="M56.4,32.2s-5.5.8-8.2,1.1-5.6,1.3-10,.9c-4.4-.4-14-1.4-14-1.4l1.7,4.6,21.3.3,9.2-5.4Z"/>
  <path class="st3" d="M61.4,31.1c-7.1.8-7.8,1.4-12.6,2.9-4.3,1.3-8.8,1.2-10,1.1-1,0-5-.5-9.2-1.1-5-.8-5.4-2.3-12.6-2.9-8.2-.6-17.4-1.9-17.4-1.9,0,0,5.2,17.4,17,22.8,6.7,3,15.4,3.9,21.8,4,1.5,0,4.1.2,7.3-.1.7,0,1.1,0,1.1,0h0c4.4-.5,9.6-1.5,14.8-3.8,11.9-5.4,16.7-22.7,16.7-22.7,0,0-13,1.5-17,1.9Z"/>
  <g class="st8">
    <path d="M-.3,29.2s.8,2.7,2.5,6.3c0-1.2.5-3.5,4-4.5,1.2-.3,2.7-.5,4.2-.5-5.8-.6-10.7-1.3-10.7-1.3Z"/>
  </g>
  <path class="st8" d="M78.3,29.2s-13,1.5-17,1.9c-.6,0-1.1.1-1.6.2,2.7-.3,8.8-.9,12.2,0,4.7,1.1,3.4,5.4,3.4,5.5,2-4.2,2.9-7.5,2.9-7.5Z"/>
  <path class="st4" d="M40.6,52.6c-13.7,0-25.3-3.7-31.1-6.1,2.1,2.2,4.5,4.1,7.2,5.4,6.7,3,15.4,3.9,21.8,4,1.5,0,4.1.2,7.3-.1.7,0,1.1,0,1.1,0h0c4.4-.5,9.6-1.5,14.8-3.8,3.2-1.4,5.8-3.7,8-6.3-4.3,2.4-14.4,7-29.1,7Z"/>
  <path class="st8" d="M48.8,34c-4.3,1.3-8.8,1.2-10,1.1-1,0-5-.5-9.2-1.1-2.9-.4-4.2-1.1-6.3-1.8.6.3,9.1,5,17.4,4.7,7.4-.3,12.3-3.9,13.7-4.6-1.7.5-3.1,1-5.6,1.7Z"/>
  <path class="st6" d="M10.8,29.1s9.2-4.4,14.9-8.9c6-4.7,21.6-2.7,24.3-1.2,2.1,1.2,9.3,6.8,12.6,8.3,3.3,1.5,6.6,2.4,6.6,2.4l-6.7-11.4-25.7-11.1s-16.2,4-16.5,4.7c-.3.6-5.8,7-5.8,7l-3.7,10.1Z"/>
  <path class="st3" d="M62.2,5.9C52.6-.6,49.2-.5,45.8.4c-3.3.9-5.1,1.6-6.7,1.6h-.4c-1.6,0-3.3-.8-6.7-1.6-3.3-.9-6.8-1-16.4,5.5C6,12.3-.3,29.2-.3,29.2c0,0,4.5,1.9,9.7.4,5.2-1.5,10.6-7.2,16.3-10.7,2.8-1.7,6.7-2.3,10.1-2.5,0,0,0,0,0,0,0,0,1.3-.1,3.2-.1,2,0,3.3.1,3.3.1,0,0,0,0,0,0,3.3.2,7.2.9,9.9,2.5,5.7,3.5,11.1,9.2,16.3,10.7,5.2,1.5,9.7-.4,9.7-.4,0,0-6.4-16.8-16-23.3Z"/>
  <path class="st8" d="M72.5,22c-.3,3.9-4.5,4.2-9.8.6-5.3-3.6-12.1-7.7-24.9-7.8-10.5,0-15.5,4.1-19.1,6.3-3.6,2.2-10,5.5-12.6,3.7-3.2-2.2-1.1-5.9-.9-7C1.7,23.7-.3,29.2-.3,29.2c0,0,4.5,1.9,9.7.4,5.2-1.5,10.6-7.2,16.3-10.7,2.8-1.7,6.7-2.3,10.1-2.5,0,0,0,0,0,0,0,0,1.3-.1,3.2-.1,2,0,3.3.1,3.3.1,0,0,0,0,0,0,3.3.2,7.2.9,9.9,2.5,5.7,3.5,11.1,9.2,16.3,10.7,5.2,1.5,9.7-.4,9.7-.4,0,0-2.7-7.1-7.2-13.9.5,1,1.8,3.6,1.5,6.7Z"/>
  <path class="st0" d="M12.7,27.1c-1.7.8-8.7,2.5-9.9-.1-.5-1.2-.6-2.6-.5-3.8-1.7,3.5-2.7,6-2.7,6,0,0,4.5,1.9,9.7.4,3.7-1.1,7.5-4.3,11.4-7.3-.9.6-6.5,4-8,4.8Z"/>
  <path class="st0" d="M75.7,23.5c0,.3,0,.7,0,.9,0,.5-.7,3.9-5.9,3.2-4.3-.6-9.8-3.5-11.6-4.5,3.6,2.7,7,5.5,10.3,6.4,5.2,1.5,9.7-.4,9.7-.4,0,0-.9-2.4-2.5-5.6Z"/>
  <path class="st8" d="M48.4,0c-.9,0-1.8.2-2.6.4-3.3.9-5.1,1.6-6.7,1.6h-.4c-1.6,0-3.3-.8-6.7-1.6-1-.3-2-.5-3.2-.4,1.3.2,3.3.7,5.5,1.9,3.7,2,4.9,1.9,6.4,1.3,1.4-.6,4.7-2.7,7.8-3.2Z"/>
  <path class="st7" d="M66.2,21.3c-4.2.5-13.1-7.8-24.5-8.8s-19.6,3.4-22.2,4.9c-2.5,1.5-10.7,7-11.9,3.4-1.1-3.3.8-7.4,1.2-8.1C3.1,20-.3,29.2-.3,29.2c0,0,4.5,1.9,9.7.4,5.2-1.5,10.6-7.2,16.3-10.7,2.8-1.7,6.7-2.3,10.1-2.5,0,0,0,0,0,0,0,0,1.3-.1,3.2-.1,2,0,3.3.1,3.3.1,0,0,0,0,0,0,3.3.2,7.2.9,9.9,2.5,5.7,3.5,11.1,9.2,16.3,10.7,5.2,1.5,9.7-.4,9.7-.4,0,0-3.7-9.8-9.7-17.3,1.5,3,1.6,8.9-2.3,9.4Z"/>
  <path class="st2" d="M12.4,11.7s.8-1.8,7.1-6C25.7,1.4,28.8,1.5,29.9,1.7c1.1.2,1,1,.6,2-1,2.8-5.3.3-11.1,3.6-5.8,3.3-7,5.6-7.1,4.3Z"/>
  <path class="st2" d="M34.7,3.6c-.7-.4-3.4-1.8-3.3-1.3,0,.5,0,2.1-.8,3-.2.3,2.8,1.2,3.1,1.2.9,0,1.5-2.6.9-2.9Z"/>
  <path class="st2" d="M44.7,5.6c-1.2.9-3-.5-1.9-1.7,1.1-1.2,3.7-2.3,4.4-2,.7.2,1.7,2.8,1.2,2.8s-3,.5-3.7.9Z"/>
  <path class="st2" d="M51.4,1.9c-.8-.3-3.5-.9-3-.2s1,1.9,1,2.3.8.9,1.8,1.1c1,.2,1.8-.1,2-.6.2-.5-.5-2.2-1.8-2.6Z"/>
  <path class="st2" d="M52.2,36.9c-.3-.4-.5-1.2-1.2-.9-.7.3-3.5,1-3.5,1.7,0,.6,1.4,2.1,3.1,2.4,1.7.3,3.2-.6,2.9-1.1-.3-.5-1.1-1.7-1.4-2.1Z"/>
  <path class="st2" d="M56,33.2c-.7.2-3.7,1.7-3.6,2.2.1.4.8,1.7,1.2,2.2.4.5.7,1.1,1.3.8.6-.2,2-1.8,2.4-2.6s.8-3.3-1.4-2.7Z"/>
  <path class="st2" d="M23.4,35.3c-2.3-.8-4-1.2-5.5-1.9-1.5-.7-4-1.5-3.7-.5.3,1,3.2,3.9,4.7,4.8,1.5.9,3.4.6,4.6-.2,1.1-.8,2.1-1,1.9-1.5-.2-.5-1.1-.4-2-.7Z"/>
  <path class="st2" d="M29.7,37.1c-1.5-.7-3.1-1-3.3-.8-.1.2-.9.7-1.4,1.1s-2,1.2-2.4,1.2c-.4,0-.6,0,.2.5.8.4,3.8,1.6,5.4,1.6,1.6,0,1.8-1.5,2-2.2.3-.6.4-1.1-.5-1.5Z"/>
  <path class="st2" d="M33,38.2c-.9-.8-1.8-.8-1.8-.4s-.3,1.6-.5,2.2c-.3.5-.8.8-.4,1,.3.2,1.9.2,2.7-.7.8-.9.3-1.8,0-2Z"/>
  <path class="st5" d="M40.1,49.2c25.8-.8,33.1-8.9,34.8-11.6,1-1.9,1.7-3.6,2.2-5h0s-6.4,11.9-38,13.3c-19.5.9-34.7-8.7-36.9-10.3.2.4.4.8.6,1.2,1.5,1.4,13.2,13.1,37.2,12.3Z"/>
  <g>
    <path class="st1" d="M64.1,50.6s0,0-.1,0c0,0,0,0,.1,0Z"/>
    <path class="st1" d="M14,50.4c-.2,0-.3-.2-.4-.3.1.1.3.2.4.3Z"/>
    <path class="st1" d="M65.1,49.9s0,0-.1,0c0,0,0,0,.1,0Z"/>
    <path class="st1" d="M66.1,49.2s0,0,0,0c0,0,0,0,0,0Z"/>
    <path class="st1" d="M67,48.4h0s0,0,0,0Z"/>
    <path class="st1" d="M12.9,49.7c-.1,0-.2-.2-.3-.2.1,0,.2.2.3.2Z"/>
    <path class="st1" d="M11.9,48.9s0,0,0,0c0,0,0,0,0,0Z"/>
    <polygon class="st1" points="46.9 55.8 46.9 55.8 46.9 55.8 46.9 55.8 46.9 55.8"/>
    <path class="st1" d="M16.5,51.8c-.3-.1-.6-.3-.9-.4.3.2.6.3.9.4Z"/>
    <path class="st1" d="M62.8,51.4s0,0,0,0c0,0,0,0,0,0Z"/>
    <path class="st1" d="M15.1,51.1c-.2-.1-.4-.2-.6-.3.2.1.4.2.6.3Z"/>
    <path class="st1" d="M12.6,49.4c-.2-.2-.5-.4-.7-.5.2.2.4.4.7.5Z"/>
    <path class="st1" d="M14.5,50.8c-.2-.1-.4-.2-.6-.4.2.1.4.2.6.4Z"/>
    <path class="st1" d="M15.6,51.4c-.2,0-.3-.2-.5-.3.2,0,.3.2.5.3Z"/>
    <path class="st1" d="M13.5,50.1c-.2-.1-.4-.3-.6-.4.2.1.4.3.6.4Z"/>
    <path class="st1" d="M38.5,56c-6.4-.2-15.1-1-21.8-4,0,0-.2,0-.2-.1,0,0,.2,0,.2.1,6.7,3,15.4,3.9,21.8,4,1.5,0,4.1.2,7.3-.1.7,0,1.1,0,1.1,0h0s-.4,0-1.1,0c-3.2.3-5.8.2-7.3.1Z"/>
    <path class="st1" d="M67,48.4c-.3.3-.6.5-.9.8.3-.3.6-.5.9-.8Z"/>
    <path class="st1" d="M64,50.7c-.3.2-.7.4-1,.6.3-.2.7-.4,1-.6Z"/>
    <path class="st1" d="M46.9,55.8h0c4.4-.4,9.6-1.5,14.8-3.8.4-.2.8-.4,1.2-.6-.4.2-.8.4-1.2.6-5.1,2.3-10.4,3.4-14.8,3.8Z"/>
    <path class="st1" d="M9.5,46.6c5.9,2.3,17.4,6.1,31.1,6.1s24.8-4.6,29.1-7c-.8,1-1.7,1.9-2.7,2.7,3.3-2.9,5.7-6.6,7.5-10,0,0-.2,0-.3.1-2.6,3.3-10.8,9.9-34.2,10.7-22.7.7-34.4-9.7-36.9-12-.1,0-.2-.1-.3-.2,2,3.9,5,8.5,9,11.9-.9-.7-1.7-1.5-2.4-2.3Z"/>
    <path class="st1" d="M65,50c-.3.2-.6.4-.9.6.3-.2.6-.4.9-.6Z"/>
    <path class="st1" d="M66,49.2c-.3.2-.6.5-.9.7.3-.2.6-.5.9-.7Z"/>
  </g>
</svg>